<svg width="72" height="80" viewBox="0 0 72 80" fill="none" xmlns="http://www.w3.org/2000/svg">
<path d="M38.8133 75.0904C38.9101 76.0149 38.9679 77.2146 39.1765 78.386C39.4288 79.8033 40.2176 79.9287 41.1351 78.9793C42.0023 78.0816 42.8109 77.1136 43.579 76.1218C51.2612 66.1912 56.3994 54.7584 61.1881 43.1836C63.8453 36.7608 64.8549 37.7487 57.7924 34.7259C47.4431 30.297 36.5963 29.8457 25.6255 31.3986C19.7882 32.2241 14.2041 33.9106 9.04146 36.9691C7.78051 37.7156 7.27548 38.4381 7.88481 39.9988C9.8359 44.9966 11.4802 50.1309 13.5868 55.054C15.3974 59.2858 17.6431 63.321 19.791 67.3899C20.1302 68.0339 20.9669 68.3939 21.5734 68.8857C22.0155 68.2539 22.5906 67.6821 22.8771 66.9825C24.6018 62.777 26.1766 58.5038 27.9839 54.3373C28.6496 52.804 29.616 51.2896 30.783 50.1343C34.3023 46.6514 38.0175 47.7218 39.1135 52.6615C39.7365 55.4677 39.8619 58.4584 39.782 61.3525C39.6585 65.8448 39.169 70.3259 38.8133 75.0904ZM0.304077 40.5428C1.66416 38.5801 2.89927 36.5037 4.43082 34.6981C5.37278 33.5882 5.55647 32.6158 5.23888 31.2742C3.76276 25.0348 3.3141 18.6895 3.6735 12.2867C4.0935 4.80569 9.16737 1.17104 16.0918 3.40598C17.9475 4.0046 19.7858 4.7325 21.5279 5.62238C25.3831 7.59241 29.4112 8.43691 33.6929 8.19786C34.3511 8.16078 35.0342 8.61401 35.7056 8.8399C35.2546 9.44534 34.9158 10.3864 34.3323 10.5972C31.7606 11.5271 29.1312 12.297 26.4956 13.0166C25.4587 13.3 24.3265 13.2034 23.2831 13.4698C22.6347 13.6352 22.0705 14.1572 21.4687 14.5192C22.0484 14.829 22.6399 15.4257 23.2074 15.4018C26.2217 15.2735 29.2472 15.1271 32.237 14.729C36.9848 14.0962 40.9481 11.7364 44.3823 8.32324C46.0516 6.66448 47.7739 5.05889 49.5361 3.50795C54.1002 -0.508213 60.5567 0.136265 64.3936 4.88423C68.0031 9.35119 68.3479 14.588 67.631 19.9912C67.1692 23.4717 66.4142 26.9214 65.6 30.3355C65.235 31.8645 65.3398 32.8544 66.4649 34.0873C68.2549 36.0475 69.6803 38.3649 71.2612 40.5316C54.9787 20.7367 15.4825 21.5475 0.304077 40.5428Z" fill="#46B1DE"/>
</svg>
